HIERARCHY
ROOT hip
{
	OFFSET 0.000000 0.000000 0.000000 
	CHANNELS 6 Xposition Yposition Zposition Xrotation Zrotation Yrotation
	JOINT abdomen
	{
		OFFSET 0.000000 3.402643 0.000000 
		CHANNELS 3 Xrotation Zrotation Yrotation
		JOINT chest
		{
			OFFSET 0.000000 8.438565 -0.680529 
			CHANNELS 3 Xrotation Zrotation Yrotation
			JOINT neck
			{
				OFFSET 0.000000 10.207942 -0.272212 
				CHANNELS 3 Xrotation Zrotation Yrotation
				JOINT head
				{
					OFFSET 0.000000 3.130431 0.000000 
					CHANNELS 3 Xrotation Zrotation Yrotation
					End Site
					{
						OFFSET 0.000000 3.130435 0.000000 
					}
				}
			}
			JOINT lCollar
			{
				OFFSET 3.470700 6.669187 -0.816635 
				CHANNELS 3 Yrotation Zrotation Xrotation
				JOINT lShldr
				{
					OFFSET 3.198488 0.000000 0.000000 
					CHANNELS 3 Zrotation Yrotation Xrotation
					JOINT lForeArm
					{
						OFFSET 10.139888 0.000000 0.000000 
						CHANNELS 3 Yrotation Zrotation Xrotation
						JOINT lHand
						{
							OFFSET 8.370511 0.000000 0.000000 
							CHANNELS 3 Zrotation Yrotation Xrotation
							End Site
							{
								OFFSET 4.083176 0.000000 0.000000 
							}
						}
					}
				}
			}
			JOINT rCollar
			{
				OFFSET -3.470700 6.669187 -0.816635 
				CHANNELS 3 Yrotation Zrotation Xrotation
				JOINT rShldr
				{
					OFFSET -3.198488 0.000000 0.000000 
					CHANNELS 3 Zrotation Yrotation Xrotation
					JOINT rForeArm
					{
						OFFSET -10.139888 0.000000 0.000000 
						CHANNELS 3 Yrotation Zrotation Xrotation
						JOINT rHand
						{
							OFFSET -8.370511 0.000000 0.000000 
							CHANNELS 3 Zrotation Yrotation Xrotation
							End Site
							{
								OFFSET -4.083176 0.000000 0.000000 
							}
						}
					}
				}
			}
		}
	}
	JOINT lThigh
	{
		OFFSET 5.308129 -1.633274 1.361059 
		CHANNELS 3 Xrotation Zrotation Yrotation
		JOINT lShin
		{
			OFFSET -2.041588 -20.007561 0.000000 
			CHANNELS 3 Xrotation Zrotation Yrotation
			JOINT lFoot
			{
				OFFSET 0.000000 -19.190928 -1.224953 
				CHANNELS 3 Xrotation Yrotation Zrotation
				End Site
				{
					OFFSET 0.000000 -2.449906 4.627600 
				}
			}
		}
	}
	JOINT rThigh
	{
		OFFSET -5.308129 -1.633274 1.361059 
		CHANNELS 3 Xrotation Zrotation Yrotation
		JOINT rShin
		{
			OFFSET 2.041588 -20.007561 0.000000 
			CHANNELS 3 Xrotation Zrotation Yrotation
			JOINT rFoot
			{
				OFFSET 0.000000 -19.190928 -1.224953 
				CHANNELS 3 Xrotation Yrotation Zrotation
				End Site
				{
					OFFSET 0.000000 -2.449906 4.627600 
				}
			}
		}
	}
}
MOTION
Frames: 13
Frame Time: 0.011111
37.182514 52.313122 23.809734 0.224591 -0.834436 1.110019 8.308205 7.247369 -7.404995 -3.912349 2.400986 -2.343912 -4.633498 -11.591825 -12.607281 36.821228 23.812794 -19.808918 1.452834 -1.250150 0.768655 -60.004044 -24.751469 34.931587 -90.210358 1.301472 31.232737 6.992188 16.005859 -14.919181 -6.408587 0.914528 1.823621 65.272034 9.671019 55.749435 91.577629 -3.283625 33.668522 -7.001954 -15.996095 59.794926 -16.803535 9.860740 8.679043 65.996880 -3.960127 -4.943120 -6.289829 -0.859199 -0.769214 -10.187239 1.677136 7.832902 28.190357 5.281566 2.047368 -17.214642 -4.330210 -0.908784 
37.105209 52.268730 24.120468 1.142585 -1.034227 -1.036629 7.537753 6.881143 -5.690362 -3.785535 2.641734 -1.841076 -4.971326 -11.164523 -12.287180 37.355106 23.042351 -19.332657 1.452834 -1.250150 0.768655 -59.202030 -25.165565 34.299278 -90.342758 1.554466 31.684309 6.992188 16.005859 -13.864494 -6.408587 0.914528 1.823621 65.332863 9.940617 56.264633 91.829704 -3.551004 33.943829 -7.001954 -15.996095 59.902344 -18.690868 11.054189 10.266145 66.232285 -3.950441 -4.955497 -7.102824 -0.766029 -0.770443 -10.678010 2.204908 8.943829 28.121700 5.276867 2.062948 -17.334002 -3.523153 -0.719757 
37.176777 52.196552 24.494316 0.742276 -0.896465 -0.158262 7.828275 7.038412 -6.138586 -3.834257 2.385849 -1.969484 -5.502575 -10.768321 -11.977766 38.355156 22.301056 -18.826164 1.452834 -1.250150 0.768655 -58.205757 -25.951563 33.840942 -90.487915 1.810426 32.058193 6.992188 16.005859 -12.409414 -6.408587 0.914528 1.823621 65.530220 10.434808 56.632637 92.042542 -3.770060 34.149803 -7.001954 -15.996095 60.009769 -19.373188 10.730980 9.204962 66.202904 -3.950415 -4.954371 -8.138874 -0.744881 -0.771051 -9.486626 1.902256 8.419371 28.021175 5.281102 2.030883 -18.214849 -3.794244 -0.907373 
37.232338 52.120155 24.848234 0.546970 -1.075568 0.136042 8.110030 7.451819 -6.358346 -4.224766 2.098257 -2.051338 -6.028812 -10.490253 -11.555714 39.534882 21.601744 -18.093094 1.452834 -1.250150 0.768655 -57.285103 -26.278048 32.988358 -90.681419 2.119777 32.453732 6.992188 16.005859 -11.130117 -6.408587 0.914528 1.823621 65.442551 10.451343 57.408573 92.360970 -4.073250 34.429836 -7.001954 -15.996095 60.195313 -20.265728 10.902421 8.501588 66.026611 -3.951226 -4.948259 -9.450821 -0.975205 -0.798809 -8.585976 2.076850 8.403047 27.901880 5.280838 2.035880 -18.480314 -4.361292 -1.110056 
37.241402 52.075462 25.183128 0.703181 -1.160642 -0.922712 8.324515 7.380696 -5.695402 -5.299276 2.123907 -1.886997 -6.033556 -10.371449 -11.263749 40.586250 20.864807 -17.581018 1.452834 -1.250150 0.768655 -56.487244 -25.744467 32.024086 -90.962975 2.527989 32.901848 6.992188 16.005859 -9.928946 -6.408587 0.914528 1.823621 64.814743 9.382764 58.434750 92.931396 -4.572381 34.902851 -7.001954 -15.996095 60.585938 -21.194532 11.420714 8.930984 65.575058 -3.980498 -4.929770 -10.719530 -0.975790 -0.792155 -8.311668 2.261665 8.954828 27.813240 5.275992 2.040924 -18.521431 -4.159928 -1.055139 
37.322029 52.055531 25.571472 0.175803 -0.956068 -0.315597 8.938714 7.374285 -6.113362 -6.246377 2.029023 -2.026512 -5.707490 -10.356245 -11.130281 41.132130 20.413893 -17.358009 1.452834 -1.250150 0.768655 -55.583344 -25.543257 31.288858 -91.248772 2.896806 33.292862 6.992188 16.005859 -8.864492 -6.408587 0.914528 1.823621 65.081078 9.127337 58.624710 92.916145 -4.558931 34.891792 -7.001954 -15.996095 60.654293 -21.464771 10.937435 7.913770 64.838486 -4.028148 -4.873907 -12.072708 -0.771418 -0.723254 -7.235643 1.962631 8.753314 27.892918 5.276256 2.053840 -19.367296 -4.537353 -1.296458 
37.299984 52.081200 25.950453 0.361275 -1.074788 -1.461885 8.775958 7.205708 -5.059998 -6.110010 2.007818 -1.717536 -5.777133 -10.277150 -10.979981 41.276981 20.323492 -17.039761 1.452834 -1.250150 0.768655 -54.458466 -26.290058 30.418903 -91.485329 3.176021 33.566513 6.992188 16.005859 -7.966055 -6.408587 0.914528 1.823621 65.427635 9.139919 58.674824 93.131950 -4.733449 35.061344 -7.001954 -15.996095 60.517578 -22.189291 11.556685 8.402531 63.827415 -4.077781 -4.807138 -13.195935 -0.823669 -0.715725 -7.148263 2.294874 9.917480 28.171350 5.276918 2.055171 -19.733070 -4.346450 -1.295536 
37.320515 52.121368 26.295008 0.644070 -1.124816 -2.454214 8.599884 7.171129 -4.199827 -5.855905 1.770714 -1.464674 -6.164291 -10.065987 -10.812726 41.474232 20.089081 -16.793812 1.452834 -1.250150 0.768655 -53.343918 -27.222141 29.207245 -91.747025 3.461561 33.851093 6.992188 16.005859 -7.057852 -6.408587 0.914528 1.823621 65.738243 9.321675 58.666374 93.374687 -4.923635 35.243149 -7.001954 -15.996095 60.283203 -22.875526 11.968708 8.774258 62.628750 -4.155685 -4.730857 -14.097649 -0.821250 -0.691071 -7.378862 2.429428 10.565529 28.460060 5.276222 2.076905 -19.922182 -3.561563 -1.079086 
37.375477 52.104149 26.641680 0.732059 -1.037783 -2.093514 8.350282 7.211184 -4.458989 -5.328165 1.567079 -1.520135 -6.559983 -9.871191 -10.705933 41.437428 19.726553 -16.732491 1.452834 -1.250150 0.768655 -52.416187 -28.299807 27.645781 -92.039162 3.760781 34.138699 6.992188 16.005859 -6.218009 -6.408587 0.914528 1.823621 65.975143 9.940067 58.627121 93.506477 -5.022731 35.340187 -7.001954 -15.996095 60.263676 -23.568279 11.704880 7.950249 61.292282 -4.233618 -4.627468 -14.600918 -0.767800 -0.648153 -7.150190 2.261362 10.016627 28.680729 5.267349 2.122215 -20.396297 -3.481663 -1.137325 
37.401447 52.034092 26.967512 0.683187 -1.047468 -2.248985 8.412181 7.147510 -4.187211 -4.615179 1.459924 -1.439806 -6.913553 -10.104607 -10.654902 41.300667 20.085630 -16.590868 1.452834 -1.250150 0.768655 -51.401550 -29.797537 26.073753 -92.258354 3.974389 34.336006 6.992188 16.005859 -5.475821 -6.408587 0.914528 1.823621 66.294571 10.718552 58.390877 93.589630 -5.083852 35.403915 -7.001954 -15.996095 60.429688 -24.124750 11.773281 7.384642 59.858021 -4.301773 -4.551808 -15.181807 -0.879093 -0.654864 -6.499601 2.302280 9.488426 28.879730 5.266386 2.130627 -20.743986 -3.772368 -1.281641 
37.412018 52.021107 27.306332 0.487849 -0.993376 -2.615982 8.858935 6.916871 -3.946182 -4.996196 1.569313 -1.374118 -6.564930 -10.555997 -10.606871 41.336479 20.553164 -16.301529 1.452834 -1.250150 0.768655 -50.401993 -30.386818 24.716867 -92.439148 4.140769 34.491947 6.992188 16.005859 -4.801993 -6.408587 0.914528 1.823621 66.255348 10.476697 58.356808 93.636734 -5.122400 35.426926 -7.001954 -15.996095 60.439457 -24.334387 11.825156 7.081141 58.226242 -4.379609 -4.423679 -15.996669 -1.148904 -0.681068 -5.975817 2.294522 10.071939 28.949211 5.266467 2.123645 -21.147036 -3.593724 -1.273701 
37.437378 52.047077 27.674744 0.477857 -0.609146 -3.071601 9.011118 6.274099 -3.989628 -5.572696 1.761034 -1.377170 -6.222832 -10.786103 -10.490404 41.565525 20.609451 -15.970029 1.452834 -1.250150 0.768655 -49.409420 -30.360651 23.111000 -92.628571 4.312111 34.649639 6.992188 16.005859 -3.991446 -6.408587 0.914528 1.823621 66.006157 9.957256 58.816113 93.711792 -5.176985 35.481167 -7.001954 -15.996095 60.576176 -24.417768 11.548852 7.062674 56.436375 -4.467144 -4.302238 -16.499609 -1.108722 -0.655994 -5.548077 1.811707 9.970428 28.839893 5.266259 2.119295 -21.436010 -3.155073 -1.170416 
37.478752 52.059460 28.052523 0.731012 -0.364464 -3.579169 8.485000 5.881151 -3.822841 -4.263694 1.548320 -1.294941 -6.934522 -10.894132 -10.427536 41.405121 20.947081 -15.870674 1.452834 -1.250150 0.768655 -48.147942 -31.956177 20.911762 -92.683662 4.358609 34.701157 6.992188 16.005859 -2.926993 -6.408587 0.914528 1.823621 66.287048 10.993428 58.842045 93.688469 -5.157598 35.469181 -7.001954 -15.996095 60.957035 -24.759634 11.490370 7.004104 54.498199 -4.554787 -4.162356 -16.578590 -1.103821 -0.643581 -5.375395 1.481701 10.038636 28.630844 5.267185 2.100745 -21.509493 -2.966417 -1.117926 
